<?xml version="1.0" encoding="UTF-8"?>
<svg height="16px" viewBox="0 0 16 16" width="16px" xmlns="http://www.w3.org/2000/svg">
    <path d="m 3.8125 15.097656 c -0.867188 -0.441406 -1.363281 -1.40625 -1.265625 -2.46875 c 0.070313 -0.816406 0.4375 -1.460937 1.410156 -2.476562 c 0.46875 -0.488282 1.09375 -1.265625 1.390625 -1.726563 c 0.96875 -1.507812 1.628906 -1.996093 2.683594 -2 c 1.003906 0 1.660156 0.5 2.628906 2 c 0.296875 0.460938 0.921875 1.238281 1.390625 1.726563 c 0.96875 1.015625 1.335938 1.660156 1.410157 2.476562 c 0.097656 1.0625 -0.398438 2.027344 -1.265626 2.46875 c -0.660156 0.332032 -1.152343 0.328125 -2.515624 -0.027344 c -1.378907 -0.355468 -1.996094 -0.355468 -3.382813 0.003907 c -1.359375 0.351562 -1.824219 0.355469 -2.484375 0.023437 z m -1.914062 -5.96875 c -1.625 -0.390625 -2.488282 -2.777344 -1.4375 -3.984375 c 0.207031 -0.238281 0.738281 -0.484375 1.042968 -0.484375 c 0.804688 0 1.875 0.855469 2.167969 1.742188 c 0.421875 1.269531 -0.015625 2.4375 -1.015625 2.710937 c -0.203125 0.054688 -0.390625 0.097657 -0.417969 0.09375 c -0.023437 -0.007812 -0.175781 -0.042969 -0.339843 -0.078125 z m 11.40625 -0.023437 c -0.953126 -0.269531 -1.382813 -1.460938 -0.96875 -2.703125 c 0.113281 -0.347656 0.308593 -0.632813 0.679687 -1.003906 c 0.835937 -0.832032 1.695313 -0.953126 2.394531 -0.339844 c 0.441406 0.382812 0.589844 0.761718 0.589844 1.480468 c 0 1.558594 -1.433594 2.925782 -2.695312 2.566407 z m -8.332032 -3.277344 c -0.429687 -0.1875 -0.886718 -0.6875 -1.195312 -1.3125 c -0.21875 -0.445313 -0.277344 -0.710937 -0.308594 -1.34375 c -0.050781 -0.960937 0.074219 -1.472656 0.46875 -1.921875 c 1.261719 -1.4375 3.378906 -0.09375 3.492188 2.21875 c 0.058593 1.15625 -0.355469 2.066406 -1.070313 2.367188 c -0.382813 0.160156 -1.011719 0.15625 -1.386719 -0.007813 z m 4.652344 0.007813 c -0.703125 -0.316407 -1.105469 -1.226563 -1.046875 -2.367188 c 0.113281 -2.3125 2.226563 -3.65625 3.488281 -2.21875 c 0.367188 0.417969 0.492188 0.847656 0.492188 1.710938 c 0 1.097656 -0.488282 2.175781 -1.214844 2.679687 c -0.449219 0.3125 -1.257812 0.402344 -1.71875 0.195313 z m 0 0" fill="#241f31"/>
</svg>
