<?xml version="1.0" encoding="UTF-8"?>
<svg height="128px" viewBox="0 0 128 128" width="128px" xmlns="http://www.w3.org/2000/svg">
    <path d="m 35.585938 114.332031 c -5.882813 -2.980469 -9.25 -9.542969 -8.601563 -16.757812 c 0.5 -5.539063 2.988281 -9.910157 9.574219 -16.796875 c 3.175781 -3.324219 7.421875 -8.597656 9.433594 -11.71875 c 6.597656 -10.222656 11.058593 -13.546875 18.210937 -13.558594 c 6.820313 -0.011719 11.285156 3.378906 17.851563 13.558594 c 2.015624 3.121094 6.261718 8.394531 9.433593 11.71875 c 6.585938 6.886718 9.078125 11.257812 9.574219 16.796875 c 0.648438 7.214843 -2.71875 13.777343 -8.601562 16.757812 c -4.472657 2.265625 -7.820313 2.230469 -17.0625 -0.171875 c -9.351563 -2.429687 -13.546876 -2.429687 -22.945313 0.011719 c -9.222656 2.394531 -12.390625 2.425781 -16.867187 0.160156 z m -12.980469 -40.511719 c -11.039063 -2.632812 -16.902344 -18.84375 -9.769531 -27.015624 c 1.40625 -1.617188 5.027343 -3.300782 7.085937 -3.300782 c 5.46875 0 12.714844 5.820313 14.707031 11.820313 c 2.863282 8.625 -0.101562 16.554687 -6.886718 18.402343 c -1.386719 0.378907 -2.664063 0.660157 -2.839844 0.625 c -0.171875 -0.03125 -1.207032 -0.273437 -2.296875 -0.53125 z m 77.382812 -0.140624 c -6.46875 -1.828126 -9.367187 -9.929688 -6.566406 -18.355469 c 0.777344 -2.351563 2.097656 -4.292969 4.617187 -6.804688 c 5.664063 -5.644531 11.511719 -6.476562 16.253907 -2.3125 c 2.976562 2.609375 3.996093 5.179688 3.996093 10.054688 c -0.003906 10.578125 -9.730468 19.839843 -18.300781 17.417969 z m -56.539062 -22.246094 c -2.914063 -1.269532 -6.007813 -4.671875 -8.089844 -8.902344 c -1.484375 -3.019531 -1.902344 -4.820312 -2.121094 -9.125 c -0.324219 -6.511719 0.527344 -9.996094 3.199219 -13.035156 c 8.566406 -9.761719 22.917969 -0.648438 23.691406 15.046875 c 0.386719 7.851562 -2.402344 14.03125 -7.253906 16.058593 c -2.601562 1.085938 -6.878906 1.066407 -9.425781 -0.042968 z m 31.585937 0.050781 c -4.769531 -2.164063 -7.496094 -8.328125 -7.117187 -16.070313 c 0.773437 -15.683593 15.125 -24.804687 23.6875 -15.050781 c 2.492187 2.835938 3.328125 5.753907 3.332031 11.601563 c 0.007812 7.445312 -3.320312 14.785156 -8.25 18.199218 c -3.050781 2.113282 -8.53125 2.734376 -11.652344 1.320313 z m 0 0" fill="#1a5fb4"/>
    <path d="m 35.585938 110.976562 c -5.882813 -2.976562 -9.25 -9.539062 -8.601563 -16.753906 c 0.5 -5.539062 2.988281 -9.910156 9.574219 -16.800781 c 3.175781 -3.320313 7.421875 -8.59375 9.433594 -11.714844 c 6.597656 -10.226562 11.058593 -13.546875 18.210937 -13.5625 c 6.820313 -0.007812 11.285156 3.382813 17.851563 13.5625 c 2.015624 3.121094 6.261718 8.394531 9.433593 11.714844 c 6.585938 6.890625 9.078125 11.261719 9.574219 16.800781 c 0.648438 7.214844 -2.71875 13.777344 -8.601562 16.753906 c -4.476563 2.269532 -7.820313 2.234376 -17.0625 -0.167968 c -9.351563 -2.429688 -13.546876 -2.429688 -22.945313 0.011718 c -9.222656 2.394532 -12.390625 2.425782 -16.867187 0.15625 z m -12.980469 -40.507812 c -11.039063 -2.632812 -16.902344 -18.84375 -9.769531 -27.015625 c 1.40625 -1.617187 5.027343 -3.300781 7.085937 -3.300781 c 5.46875 0 12.714844 5.820312 14.707031 11.820312 c 2.863282 8.621094 -0.101562 16.554688 -6.886718 18.402344 c -1.386719 0.378906 -2.664063 0.660156 -2.839844 0.625 c -0.171875 -0.035156 -1.207032 -0.273438 -2.296875 -0.53125 z m 77.382812 -0.140625 c -6.46875 -1.828125 -9.367187 -9.929687 -6.566406 -18.355469 c 0.777344 -2.351562 2.097656 -4.292968 4.617187 -6.804687 c 5.664063 -5.644531 11.511719 -6.476563 16.253907 -2.3125 c 2.976562 2.609375 3.996093 5.179687 3.992187 10.054687 c 0 10.578125 -9.726562 19.839844 -18.296875 17.417969 z m -56.539062 -22.246094 c -2.914063 -1.269531 -6.007813 -4.671875 -8.089844 -8.90625 c -1.484375 -3.015625 -1.902344 -4.816406 -2.121094 -9.121093 c -0.324219 -6.511719 0.527344 -9.996094 3.199219 -13.035157 c 8.566406 -9.761719 22.917969 -0.648437 23.691406 15.042969 c 0.386719 7.855469 -2.402344 14.035156 -7.253906 16.0625 c -2.601562 1.085938 -6.878906 1.066406 -9.425781 -0.042969 z m 31.585937 0.050781 c -4.769531 -2.164062 -7.496094 -8.328124 -7.117187 -16.070312 c 0.773437 -15.683594 15.125 -24.804688 23.6875 -15.054688 c 2.488281 2.839844 3.328125 5.757813 3.332031 11.605469 c 0.007812 7.445313 -3.320312 14.785157 -8.25 18.199219 c -3.050781 2.113281 -8.53125 2.734375 -11.652344 1.320312 z m 0 0" fill="#3e88e1"/>
    <path d="m 80.941406 74.175781 l -36.691406 11.46875 l 8.027344 6.089844 l 25.371094 -15.332031 l -21.359376 17.625 l 9.816407 7.238281 z m 0 0" fill="#aaa89f"/>
    <path d="m 51.128906 89.082031 v 13.996094 l 6.492188 -5.675781 l -1.515625 -1.730469 l -2.683594 2.347656 v -8.9375 z m 0 0" fill="#aaa89f" fill-rule="evenodd"/>
    <g fill="#ffffff">
        <path d="m 80.941406 73.058594 l -36.691406 11.464844 l 8.027344 6.09375 l 25.371094 -15.335938 l -21.359376 17.628906 l 9.816407 7.238282 z m 0 0"/>
        <path d="m 51.128906 87.964844 v 13.996094 l 6.492188 -5.675782 l -1.515625 -1.730468 l -2.683594 2.34375 v -8.933594 z m 0 0" fill-rule="evenodd"/>
    </g>
</svg>
